<svg xmlns="http://www.w3.org/2000/svg" xmlns:xlink="http://www.w3.org/1999/xlink" width="800" zoomAndPan="magnify" viewBox="0 105 280 374.999991" height="800" preserveAspectRatio="xMidYMid meet" version="1.0"><defs><g/></defs><g fill="#ff5733" fill-opacity="1"><g transform="translate(76.320307, 212.249986)"><g><path d="M 35.164062 -52.746094 C 32.644531 -52.523438 29.734375 -51.851562 27.046875 -50.84375 C 17.246094 -47.203125 6.4375 -38.246094 2.96875 -30.851562 C 1.398438 -27.550781 1.566406 -24.75 3.472656 -22.0625 C 3.808594 -21.613281 4.816406 -20.605469 5.65625 -19.820312 C 7.390625 -18.253906 8.34375 -17.804688 9.183594 -18.140625 C 10.136719 -18.589844 9.855469 -19.207031 7.894531 -20.550781 C 6.886719 -21.222656 6.496094 -21.894531 6.328125 -23.125 C 6.160156 -24.804688 7.167969 -27.492188 8.902344 -29.84375 C 10.023438 -31.300781 12.765625 -34.046875 14.503906 -35.5 C 20.605469 -40.429688 29.734375 -44.851562 36.0625 -45.914062 C 39.53125 -46.476562 43.789062 -46.027344 43.789062 -45.074219 C 43.789062 -44.347656 42.949219 -41.941406 42.21875 -40.371094 C 40.429688 -36.675781 37.292969 -32.589844 32.699219 -27.886719 C 28.277344 -23.292969 23.628906 -19.429688 20.269531 -17.414062 C 17.972656 -16.070312 18.03125 -16.070312 19.207031 -18.308594 C 21.839844 -23.292969 23.351562 -26.039062 25.199219 -29.230469 C 28.332031 -34.660156 29.171875 -36.171875 29.285156 -36.621094 C 29.398438 -37.125 29.0625 -37.910156 28.726562 -37.910156 C 28.558594 -37.910156 28.332031 -38.246094 28.109375 -38.691406 C 27.605469 -39.8125 26.820312 -39.867188 25.308594 -38.75 C 23.238281 -37.238281 18.085938 -30.515625 14.503906 -24.695312 C 13.160156 -22.453125 10.917969 -17.972656 9.632812 -14.894531 C 5.597656 -5.375 4.925781 0.390625 7.503906 3.527344 C 8.175781 4.367188 8.398438 4.535156 10.582031 5.992188 C 11.816406 6.777344 12.375 6.886719 12.992188 6.269531 C 13.71875 5.65625 13.496094 4.480469 12.65625 4.589844 C 12.488281 4.648438 12.375 4.589844 12.375 4.535156 C 12.375 4.480469 12.320312 4.199219 12.261719 3.917969 C 12.09375 3.359375 12.597656 -1.0625 12.992188 -2.800781 C 13.496094 -5.09375 15.175781 -9.96875 15.453125 -9.96875 C 15.511719 -9.96875 15.679688 -9.800781 15.789062 -9.6875 C 16.40625 -8.960938 17.75 -8.625 18.980469 -8.902344 C 20.101562 -9.128906 24.246094 -11.199219 26.207031 -12.542969 C 30.40625 -15.34375 35.667969 -20.101562 39.867188 -24.972656 C 44.179688 -29.84375 47.261719 -34.941406 48.210938 -38.691406 C 48.941406 -41.605469 48.4375 -44.402344 46.699219 -46.699219 C 46.308594 -47.203125 45.804688 -48.042969 45.523438 -48.546875 C 43.84375 -51.851562 40.429688 -53.25 35.164062 -52.746094 Z M 6.269531 -32.644531 C 6.550781 -32.867188 6.550781 -32.867188 6.328125 -32.589844 C 6.101562 -32.253906 5.933594 -32.195312 5.933594 -32.308594 C 5.933594 -32.363281 6.046875 -32.53125 6.269531 -32.644531 Z M 3.917969 -28.613281 C 3.917969 -28.894531 5.429688 -31.691406 5.765625 -31.972656 C 5.878906 -32.085938 5.542969 -31.355469 4.984375 -30.347656 C 3.917969 -28.222656 3.917969 -28.277344 3.917969 -28.613281 Z M 4.199219 -27.492188 C 4.367188 -28.445312 5.375 -30.515625 6.214844 -31.75 C 7.054688 -32.925781 9.6875 -35.894531 10.75 -36.84375 C 11.199219 -37.179688 10.75 -36.675781 9.800781 -35.667969 C 6.886719 -32.476562 5.710938 -30.742188 4.816406 -28.5 C 4.144531 -26.820312 3.976562 -26.597656 4.199219 -27.492188 Z M 6.496094 -27.046875 C 6.496094 -26.933594 6.382812 -26.765625 6.269531 -26.597656 C 6.214844 -26.429688 6.101562 -26.429688 6.101562 -26.484375 C 6.101562 -26.597656 6.214844 -26.820312 6.269531 -26.933594 C 6.382812 -27.101562 6.496094 -27.15625 6.496094 -27.046875 Z M 11.589844 -36.171875 C 9.96875 -34.550781 8.121094 -32.53125 7.558594 -31.804688 C 7.054688 -31.019531 6.269531 -29.789062 5.878906 -29.0625 C 5.09375 -27.550781 4.925781 -27.773438 5.710938 -29.285156 C 7 -31.804688 10.304688 -35.613281 13.269531 -38.019531 C 14.222656 -38.804688 13.773438 -38.300781 11.589844 -36.171875 Z M 15.847656 -39.925781 C 15.679688 -39.699219 15.566406 -39.589844 15.511719 -39.589844 C 15.34375 -39.589844 15.453125 -39.757812 15.734375 -39.980469 C 16.070312 -40.203125 16.070312 -40.203125 15.847656 -39.925781 Z M 19.09375 -19.988281 C 18.8125 -19.429688 18.757812 -19.316406 18.757812 -19.597656 C 18.757812 -19.652344 18.871094 -19.933594 19.039062 -20.101562 C 19.261719 -20.4375 19.261719 -20.4375 19.09375 -19.988281 Z M 20.101562 -21.839844 C 19.878906 -21.335938 19.597656 -20.941406 19.542969 -20.941406 C 19.484375 -20.941406 19.652344 -21.335938 19.933594 -21.839844 C 20.15625 -22.34375 20.4375 -22.734375 20.496094 -22.734375 C 20.550781 -22.734375 20.382812 -22.34375 20.101562 -21.839844 Z M 21.109375 -23.6875 C 20.886719 -23.238281 20.71875 -22.957031 20.664062 -22.957031 C 20.605469 -22.957031 20.71875 -23.238281 20.941406 -23.6875 C 21.109375 -24.078125 21.335938 -24.414062 21.390625 -24.414062 C 21.445312 -24.414062 21.335938 -24.078125 21.109375 -23.6875 Z M 23.015625 -27.046875 C 22.285156 -25.703125 21.503906 -24.414062 21.503906 -24.636719 C 21.503906 -24.804688 23.292969 -27.941406 23.519531 -28.164062 C 23.628906 -28.277344 23.40625 -27.773438 23.015625 -27.046875 Z M 25.925781 -31.917969 C 25.757812 -31.691406 25.199219 -30.742188 24.75 -29.957031 C 24.246094 -29.117188 23.796875 -28.445312 23.742188 -28.445312 C 23.6875 -28.445312 23.910156 -28.835938 24.132812 -29.285156 C 25.03125 -30.796875 26.09375 -32.421875 26.207031 -32.421875 C 26.207031 -32.421875 26.148438 -32.195312 25.925781 -31.917969 Z M 26.597656 -32.980469 C 26.484375 -32.8125 26.375 -32.644531 26.316406 -32.644531 C 26.261719 -32.644531 26.316406 -32.8125 26.429688 -32.980469 C 26.542969 -33.203125 26.652344 -33.371094 26.710938 -33.371094 C 26.765625 -33.371094 26.710938 -33.203125 26.597656 -32.980469 Z M 27.773438 -34.886719 C 27.605469 -34.605469 27.324219 -34.15625 27.101562 -33.878906 L 26.765625 -33.429688 L 27.046875 -33.988281 C 27.214844 -34.324219 27.550781 -34.773438 27.71875 -34.996094 L 28.109375 -35.445312 Z M 27.382812 -37.742188 C 27.4375 -37.742188 26.933594 -37.070312 26.261719 -36.230469 C 22.789062 -31.917969 17.414062 -23.292969 14.335938 -16.964844 C 13.71875 -15.734375 13.160156 -14.726562 13.046875 -14.726562 C 12.488281 -14.726562 17.191406 -23.460938 21 -29.339844 C 23.183594 -32.757812 26.988281 -37.742188 27.382812 -37.742188 Z M 25.085938 -35.949219 C 25.367188 -36.171875 25.367188 -36.171875 25.140625 -35.894531 C 24.917969 -35.558594 24.75 -35.5 24.75 -35.613281 C 24.75 -35.667969 24.917969 -35.78125 25.085938 -35.949219 Z M 24.300781 -34.996094 C 24.46875 -35.222656 24.695312 -35.390625 24.75 -35.390625 C 24.804688 -35.390625 24.695312 -35.222656 24.46875 -34.996094 C 24.300781 -34.828125 24.132812 -34.660156 24.078125 -34.660156 C 24.023438 -34.660156 24.132812 -34.828125 24.300781 -34.996094 Z M 23.796875 -34.324219 C 24.078125 -34.550781 24.132812 -34.550781 23.855469 -34.214844 C 23.628906 -33.933594 23.460938 -33.820312 23.460938 -33.988281 C 23.460938 -34.046875 23.628906 -34.15625 23.796875 -34.324219 Z M 22.847656 -33.09375 C 23.460938 -33.933594 23.628906 -33.933594 23.070312 -33.09375 C 22.847656 -32.757812 22.621094 -32.476562 22.511719 -32.476562 C 22.453125 -32.421875 22.566406 -32.757812 22.847656 -33.09375 Z M 8.121094 -1.902344 C 8.121094 -2.238281 8.34375 -3.414062 8.566406 -4.535156 C 9.910156 -10.304688 13.328125 -18.085938 17.75 -25.308594 C 19.710938 -28.5 22.007812 -32.085938 22.230469 -32.195312 C 22.453125 -32.363281 22.511719 -32.363281 20.664062 -29.621094 C 15.789062 -22.175781 12.152344 -14.949219 9.96875 -8.34375 C 9.464844 -6.777344 8.847656 -4.589844 8.625 -3.414062 C 8.34375 -2.183594 8.175781 -1.511719 8.121094 -1.902344 Z M 9.519531 -3.582031 C 9.351562 -2.800781 9.128906 -1.566406 9.070312 -0.839844 L 8.902344 0.390625 L 8.902344 -0.839844 C 8.847656 -3.136719 9.800781 -7.054688 11.480469 -11.253906 C 11.984375 -12.542969 12.429688 -13.605469 12.542969 -13.605469 C 12.765625 -13.605469 12.765625 -13.550781 11.871094 -11.367188 C 10.917969 -8.960938 9.910156 -5.65625 9.519531 -3.582031 Z M 10.527344 -4.367188 C 10.414062 -4.085938 10.359375 -3.976562 10.359375 -4.085938 C 10.304688 -4.816406 12.261719 -10.808594 12.933594 -12.039062 C 13.382812 -12.933594 13.269531 -12.261719 12.710938 -10.808594 C 12.429688 -10.078125 11.871094 -8.457031 11.480469 -7.222656 C 11.03125 -5.933594 10.640625 -4.648438 10.527344 -4.367188 Z M 11.535156 0.449219 C 11.480469 0.503906 11.421875 0.390625 11.421875 0.167969 C 11.421875 0 11.480469 -0.0546875 11.535156 0.0546875 C 11.589844 0.222656 11.589844 0.390625 11.535156 0.449219 Z M 11.703125 -1.121094 C 11.648438 -1.007812 11.648438 -1.121094 11.648438 -1.34375 C 11.648438 -1.625 11.648438 -1.679688 11.703125 -1.566406 C 11.757812 -1.457031 11.757812 -1.230469 11.703125 -1.121094 Z M 13.773438 -8.289062 C 13.382812 -7.167969 12.765625 -5.207031 12.429688 -4.03125 C 12.09375 -2.800781 11.816406 -1.960938 11.816406 -2.183594 C 11.757812 -2.855469 12.878906 -6.550781 13.886719 -9.296875 C 14.671875 -11.3125 14.558594 -10.582031 13.773438 -8.289062 Z M 15.902344 -17.804688 C 15.117188 -16.238281 14.390625 -14.894531 14.335938 -14.78125 C 13.269531 -13.664062 17.023438 -20.886719 20.269531 -26.316406 C 22.957031 -30.796875 27.269531 -37.070312 27.886719 -37.460938 C 28.222656 -37.683594 27.996094 -37.40625 26.765625 -35.726562 C 23.6875 -31.636719 18.871094 -23.6875 15.902344 -17.804688 Z M 36.0625 -27.773438 C 37.964844 -29.957031 39.53125 -31.972656 40.933594 -33.988281 C 42.445312 -36.171875 42.78125 -36.566406 42.050781 -35.277344 C 41.269531 -33.933594 40.09375 -32.195312 38.355469 -30.179688 C 37.574219 -29.171875 36.398438 -27.886719 35.835938 -27.324219 L 34.773438 -26.316406 Z M 29.902344 -20.664062 C 30.125 -20.886719 30.347656 -21.109375 30.40625 -21.109375 C 30.460938 -21.109375 30.292969 -20.886719 30.070312 -20.664062 C 29.84375 -20.382812 29.621094 -20.214844 29.566406 -20.214844 C 29.507812 -20.214844 29.675781 -20.382812 29.902344 -20.664062 Z M 36.117188 -24.132812 C 35.78125 -23.796875 35.445312 -23.460938 35.390625 -23.460938 C 35.332031 -23.460938 35.613281 -23.796875 35.949219 -24.132812 C 36.285156 -24.46875 36.566406 -24.75 36.621094 -24.75 C 36.675781 -24.75 36.453125 -24.46875 36.117188 -24.132812 Z M 37.683594 -25.925781 C 37.40625 -25.589844 37.125 -25.308594 37.070312 -25.308594 C 36.957031 -25.308594 37.070312 -25.476562 37.628906 -25.980469 L 38.1875 -26.484375 Z M 38.859375 -25.03125 C 38.636719 -24.804688 38.355469 -24.582031 38.355469 -24.582031 C 38.300781 -24.582031 38.414062 -24.804688 38.691406 -25.03125 C 38.917969 -25.308594 39.140625 -25.476562 39.195312 -25.476562 C 39.253906 -25.476562 39.085938 -25.308594 38.859375 -25.03125 Z M 31.691406 -20.71875 C 30.851562 -19.988281 29.734375 -18.980469 29.171875 -18.589844 C 28.390625 -17.972656 28.445312 -18.085938 29.507812 -19.039062 C 33.878906 -23.015625 37.515625 -26.765625 39.980469 -29.734375 C 42.386719 -32.644531 41.941406 -31.859375 39.363281 -28.5 C 38.078125 -26.878906 33.988281 -22.734375 31.691406 -20.71875 Z M 42.109375 -29.0625 C 41.546875 -28.277344 40.707031 -27.15625 40.203125 -26.652344 C 39.699219 -26.148438 39.476562 -25.980469 39.699219 -26.207031 C 39.925781 -26.484375 40.875 -27.71875 41.773438 -28.949219 C 42.722656 -30.238281 43.5625 -31.355469 43.675781 -31.46875 C 43.957031 -31.75 43.285156 -30.628906 42.109375 -29.0625 Z M 44.066406 -37.40625 C 44.234375 -37.40625 43.058594 -35.164062 41.996094 -33.652344 C 40.371094 -31.132812 38.1875 -28.5 35.332031 -25.644531 C 32.589844 -22.847656 30.628906 -21 30.628906 -21.167969 C 30.628906 -21.222656 31.691406 -22.34375 33.035156 -23.6875 C 37.742188 -28.390625 41.101562 -32.476562 43.285156 -36.171875 C 43.675781 -36.84375 44.066406 -37.40625 44.066406 -37.40625 Z M 44.066406 -37.40625 "/></g></g></g><g fill="#ff5733" fill-opacity="1"><g transform="translate(126.657279, 212.249986)"><g><path d="M -1.902344 -8.457031 C -1.34375 -7.28125 -0.0546875 -5.933594 0.449219 -5.933594 C 0.671875 -5.933594 1.230469 -5.542969 1.734375 -5.09375 C 3.136719 -3.808594 4.03125 -4.03125 6.160156 -6.214844 C 7.167969 -7.335938 10.078125 -11.03125 11.367188 -12.878906 L 12.261719 -14.222656 L 12.375 -12.824219 C 12.65625 -10.304688 13.71875 -8.289062 15.230469 -7.558594 C 15.679688 -7.335938 16.070312 -7.054688 16.125 -6.886719 C 16.40625 -6.160156 18.308594 -5.878906 19.148438 -6.4375 C 21.335938 -7.894531 24.359375 -11.984375 29.957031 -21.167969 C 31.355469 -23.519531 31.636719 -24.46875 30.347656 -22.679688 C 29.957031 -22.117188 29.566406 -21.671875 29.566406 -21.726562 C 29.566406 -21.839844 29.902344 -22.285156 30.238281 -22.789062 C 30.628906 -23.292969 30.851562 -23.796875 30.796875 -23.855469 C 30.742188 -23.910156 30.179688 -23.183594 29.566406 -22.34375 C 26.09375 -17.582031 24.359375 -15.34375 22.453125 -13.382812 C 20.605469 -11.480469 18.140625 -9.40625 17.972656 -9.632812 C 17.804688 -9.742188 18.253906 -11.703125 18.8125 -13.550781 C 19.09375 -14.558594 19.988281 -16.910156 20.71875 -18.8125 C 22.34375 -22.902344 22.957031 -25.085938 22.957031 -26.261719 C 22.957031 -27.046875 22.902344 -27.214844 22.34375 -27.71875 C 21.949219 -28.054688 21.613281 -28.277344 21.503906 -28.222656 C 21.445312 -28.164062 21.335938 -28.222656 21.277344 -28.390625 C 21.222656 -28.558594 21.054688 -28.667969 20.886719 -28.613281 C 20.71875 -28.558594 20.605469 -28.613281 20.605469 -28.78125 C 20.605469 -29.0625 20.550781 -29.0625 20.214844 -28.726562 C 19.820312 -28.390625 19.820312 -28.390625 20.046875 -28.78125 C 20.328125 -29.398438 20.269531 -29.734375 19.878906 -29.84375 C 19.148438 -30.070312 18.589844 -29.789062 18.03125 -28.835938 C 17.46875 -27.996094 17.132812 -27.660156 17.132812 -28.109375 C 17.132812 -28.222656 16.964844 -28.332031 16.742188 -28.390625 C 16.519531 -28.445312 15.789062 -29.003906 15.175781 -29.566406 C 14.277344 -30.460938 13.886719 -30.683594 13.214844 -30.796875 C 11.648438 -31.019531 9.464844 -30.292969 7.617188 -28.949219 C 2.96875 -25.535156 -2.855469 -14.839844 -2.464844 -10.472656 C -2.40625 -9.910156 -2.128906 -9.015625 -1.902344 -8.457031 Z M 28.332031 -19.820312 C 28.445312 -19.765625 28.558594 -19.933594 28.558594 -20.101562 C 28.613281 -20.269531 28.667969 -20.496094 28.726562 -20.550781 C 28.835938 -20.605469 28.835938 -20.496094 28.78125 -20.269531 C 28.726562 -19.710938 28.390625 -19.375 28.222656 -19.652344 C 28.164062 -19.765625 28.164062 -19.820312 28.332031 -19.820312 Z M 27.550781 -18.253906 C 27.828125 -18.476562 27.828125 -18.476562 27.605469 -18.140625 C 27.324219 -17.863281 27.214844 -17.75 27.214844 -17.917969 C 27.214844 -17.972656 27.324219 -18.085938 27.550781 -18.253906 Z M 26.765625 -17.695312 C 26.820312 -17.804688 27.214844 -17.75 27.214844 -17.582031 C 27.214844 -17.582031 27.101562 -17.527344 26.933594 -17.527344 C 26.765625 -17.527344 26.710938 -17.582031 26.765625 -17.695312 Z M 24.972656 -15.175781 C 25.085938 -15.285156 25.308594 -15.34375 25.421875 -15.34375 C 25.535156 -15.34375 25.644531 -15.511719 25.703125 -15.621094 C 25.757812 -15.789062 25.703125 -15.847656 25.535156 -15.734375 C 25.367188 -15.621094 25.367188 -15.679688 25.421875 -15.734375 C 25.535156 -15.847656 25.644531 -15.902344 25.757812 -15.902344 C 25.871094 -15.902344 26.039062 -16.015625 26.09375 -16.183594 C 26.148438 -16.351562 26.09375 -16.40625 25.871094 -16.292969 C 25.703125 -16.125 25.703125 -16.183594 25.871094 -16.40625 C 26.039062 -16.628906 26.207031 -16.6875 26.316406 -16.628906 C 26.484375 -16.519531 25.980469 -15.566406 25.589844 -15.230469 C 25.253906 -14.949219 24.695312 -14.839844 24.972656 -15.175781 Z M 24.582031 -14.445312 C 24.46875 -14.335938 24.414062 -14.390625 24.527344 -14.445312 C 24.582031 -14.558594 24.75 -14.613281 24.917969 -14.671875 C 25.140625 -14.671875 25.140625 -14.613281 24.972656 -14.335938 C 24.917969 -14.167969 24.695312 -13.941406 24.582031 -13.886719 C 24.414062 -13.773438 24.414062 -13.832031 24.582031 -14 C 24.695312 -14.167969 24.804688 -14.335938 24.804688 -14.390625 C 24.804688 -14.503906 24.695312 -14.503906 24.582031 -14.445312 Z M 23.796875 -13.605469 C 23.964844 -13.832031 24.191406 -14 24.246094 -14 C 24.300781 -14 24.191406 -13.832031 23.964844 -13.605469 C 23.796875 -13.4375 23.628906 -13.269531 23.574219 -13.269531 C 23.519531 -13.269531 23.628906 -13.4375 23.796875 -13.605469 Z M 22.957031 -12.542969 C 23.238281 -12.765625 23.238281 -12.765625 23.015625 -12.488281 C 22.789062 -12.152344 22.621094 -12.09375 22.621094 -12.207031 C 22.621094 -12.261719 22.734375 -12.429688 22.957031 -12.542969 Z M 3.640625 -10.695312 C 3.527344 -10.359375 3.414062 -9.742188 3.246094 -9.351562 L 3.023438 -8.566406 L 3.136719 -9.40625 C 3.191406 -9.855469 3.359375 -10.472656 3.472656 -10.808594 L 3.75 -11.3125 Z M 10.75 -13.941406 C 10.472656 -13.664062 10.359375 -13.550781 10.359375 -13.71875 C 10.359375 -13.71875 10.472656 -13.886719 10.640625 -14 C 10.917969 -14.222656 10.976562 -14.222656 10.75 -13.941406 Z M 11.253906 -14.671875 C 11.03125 -14.390625 10.863281 -14.277344 10.863281 -14.445312 C 10.863281 -14.445312 11.03125 -14.613281 11.199219 -14.726562 C 11.480469 -15.007812 11.480469 -14.949219 11.253906 -14.671875 Z M 21.726562 -24.191406 C 22.285156 -25.308594 21.558594 -23.125 20.664062 -20.941406 C 20.101562 -19.597656 19.207031 -17.246094 18.644531 -15.734375 C 17.636719 -12.824219 17.414062 -12.429688 18.03125 -14.613281 C 18.367188 -15.734375 21.222656 -23.125 21.726562 -24.191406 Z M 20.328125 -24.972656 C 20.4375 -24.972656 19.933594 -23.742188 18.925781 -21.445312 C 18.476562 -20.4375 17.804688 -18.871094 17.46875 -18.03125 C 16.628906 -15.847656 16.574219 -15.734375 16.574219 -15.847656 C 16.519531 -16.519531 19.988281 -24.972656 20.328125 -24.972656 Z M 17.804688 -21.839844 C 18.085938 -22.175781 17.917969 -21.613281 17.191406 -19.765625 C 16.628906 -18.367188 15.902344 -16.292969 15.621094 -15.175781 C 15.230469 -13.71875 15.117188 -13.4375 15.175781 -14.109375 C 15.453125 -16.292969 16.910156 -20.773438 17.804688 -21.839844 Z M 16.125 -19.316406 C 16.015625 -19.207031 15.679688 -18.253906 15.34375 -17.246094 C 15.007812 -16.183594 14.78125 -15.679688 14.839844 -16.125 C 15.007812 -17.246094 15.621094 -19.09375 15.957031 -19.316406 C 16.238281 -19.542969 16.238281 -19.542969 16.125 -19.316406 Z M 13.832031 -24.527344 C 14.503906 -24.972656 15.175781 -25.421875 15.34375 -25.476562 C 15.902344 -25.703125 15.789062 -24.972656 14.839844 -23.070312 C 13.269531 -19.988281 7.671875 -12.542969 5.320312 -10.414062 C 4.816406 -9.96875 4.367188 -9.574219 4.253906 -9.574219 C 4.03125 -9.574219 5.152344 -12.597656 6.214844 -14.839844 C 8.230469 -18.980469 11.199219 -22.789062 13.832031 -24.527344 Z M 7.785156 -23.183594 L 8.511719 -23.964844 L 7.726562 -22.902344 C 5.765625 -20.214844 4.421875 -17.972656 3.472656 -15.621094 C 3.078125 -14.78125 2.519531 -13.269531 2.183594 -12.261719 C 1.847656 -11.253906 1.566406 -10.582031 1.566406 -10.808594 C 1.511719 -11.648438 2.6875 -14.839844 3.75 -16.964844 C 5.039062 -19.429688 6.664062 -21.949219 7.785156 -23.183594 Z M 5.65625 -21.894531 C 5.710938 -21.894531 5.542969 -21.503906 5.207031 -21.054688 C 4.421875 -19.878906 2.742188 -16.6875 2.070312 -15.007812 C 1.734375 -14.222656 1.230469 -12.65625 0.953125 -11.535156 C 0.558594 -9.96875 0.449219 -9.6875 0.449219 -10.246094 C 0.449219 -12.261719 2.238281 -16.6875 4.589844 -20.328125 C 5.09375 -21.167969 5.597656 -21.894531 5.65625 -21.894531 Z M -0.222656 -11.253906 C 0 -12.320312 0.617188 -14.222656 1.007812 -14.894531 C 1.230469 -15.285156 1.289062 -15.398438 1.230469 -15.175781 C 1.175781 -15.007812 0.839844 -13.941406 0.503906 -12.824219 C -0.167969 -10.75 -0.449219 -10.136719 -0.222656 -11.253906 Z M -0.222656 -11.253906 "/></g></g></g><g fill="#ff5733" fill-opacity="1"><g transform="translate(153.589517, 212.249986)"><g><path d="M 8.007812 -29.789062 C 5.207031 -28.445312 0.726562 -21.949219 -1.175781 -16.519531 C -2.574219 -12.65625 -2.6875 -8.457031 -1.511719 -6.214844 C -1.121094 -5.429688 0.113281 -4.3125 0.726562 -4.199219 C 1.007812 -4.144531 1.398438 -3.917969 1.625 -3.75 C 3.078125 -2.464844 4.480469 -2.855469 6.71875 -5.152344 C 7.335938 -5.710938 8.34375 -7 9.015625 -7.953125 C 9.6875 -8.847656 10.246094 -9.574219 10.246094 -9.574219 C 10.304688 -9.519531 9.910156 -8.398438 9.464844 -7 C 5.039062 4.925781 0.726562 10.582031 -3.976562 10.582031 C -4.925781 10.582031 -5.488281 10.191406 -5.710938 9.351562 C -5.765625 9.183594 -5.992188 8.847656 -6.101562 8.679688 C -6.328125 8.398438 -6.4375 8.398438 -6.664062 8.566406 C -6.945312 8.792969 -6.945312 8.734375 -6.832031 8.457031 L -6.71875 8.0625 L -7 8.457031 C -7.222656 8.679688 -7.28125 8.734375 -7.28125 8.566406 C -7.167969 7.953125 -7.28125 7.785156 -7.671875 7.785156 C -8.625 7.785156 -8.847656 8.792969 -8.0625 9.910156 C -7.335938 11.03125 -5.992188 12.320312 -5.375 12.597656 C -5.039062 12.710938 -4.421875 13.046875 -4.03125 13.328125 C -3.078125 13.941406 -2.519531 14.222656 -1.398438 14.390625 C -0.222656 14.613281 1.734375 14.445312 2.910156 14.054688 C 6.382812 12.710938 9.296875 9.40625 12.375 3.136719 C 14.277344 -0.785156 15.621094 -4.535156 18.476562 -14 C 18.980469 -15.566406 19.765625 -18.308594 20.328125 -20.046875 C 20.886719 -21.839844 21.445312 -23.6875 21.558594 -24.246094 C 21.726562 -25.253906 21.671875 -25.871094 21.335938 -25.644531 C 21.222656 -25.589844 21.167969 -25.703125 21.167969 -25.925781 C 21.167969 -26.316406 20.71875 -26.542969 20.4375 -26.261719 C 20.269531 -26.09375 20.214844 -26.09375 20.214844 -26.316406 C 20.214844 -26.484375 20.101562 -26.652344 19.933594 -26.710938 C 19.820312 -26.765625 19.597656 -27.046875 19.484375 -27.324219 C 19.207031 -28.164062 17.917969 -27.71875 16.910156 -26.375 L 16.40625 -25.757812 L 15.957031 -26.542969 C 15.398438 -27.492188 14.558594 -28.222656 12.824219 -29.339844 C 10.976562 -30.515625 9.800781 -30.628906 8.007812 -29.789062 Z M 5.039062 -22.285156 C 5.152344 -22.453125 5.261719 -22.621094 5.320312 -22.621094 C 5.375 -22.621094 5.320312 -22.453125 5.207031 -22.285156 C 5.09375 -22.0625 4.984375 -21.894531 4.925781 -21.894531 C 4.871094 -21.894531 4.925781 -22.0625 5.039062 -22.285156 Z M 1.511719 -16.964844 C 1.625 -17.078125 1.734375 -17.132812 1.734375 -17.023438 C 1.734375 -16.910156 1.625 -16.742188 1.511719 -16.574219 C 1.457031 -16.40625 1.34375 -16.40625 1.34375 -16.460938 C 1.34375 -16.574219 1.457031 -16.796875 1.511719 -16.964844 Z M -0.390625 -10.136719 C -0.222656 -11.925781 0.839844 -15.789062 1.289062 -16.183594 C 1.34375 -16.238281 1.34375 -16.183594 1.289062 -16.015625 C 1.230469 -15.847656 1.007812 -15.117188 0.785156 -14.335938 C 0.558594 -13.605469 0.167969 -12.09375 -0.0546875 -10.976562 C -0.449219 -9.238281 -0.449219 -9.128906 -0.390625 -10.136719 Z M 0.449219 -8.960938 C 0.28125 -7.503906 0.28125 -7.503906 0.335938 -9.519531 C 0.449219 -12.765625 1.847656 -16.855469 4.199219 -20.886719 C 5.039062 -22.34375 4.871094 -21.78125 3.75 -19.542969 C 2.574219 -17.191406 1.398438 -13.941406 0.894531 -11.816406 C 0.726562 -11.03125 0.558594 -9.800781 0.449219 -8.960938 Z M 1.289062 -10.136719 C 1.511719 -12.597656 2.96875 -16.574219 4.757812 -20.046875 C 5.992188 -22.398438 7.503906 -24.804688 7.671875 -24.804688 C 7.785156 -24.804688 7.671875 -24.582031 7.222656 -23.910156 C 5.992188 -22.0625 3.75 -17.46875 2.800781 -14.726562 C 2.464844 -13.886719 2.015625 -12.261719 1.679688 -11.144531 C 1.289062 -9.574219 1.175781 -9.351562 1.289062 -10.136719 Z M 4.085938 -16.855469 C 4.085938 -16.742188 4.03125 -16.574219 3.917969 -16.40625 C 3.808594 -16.238281 3.75 -16.183594 3.75 -16.292969 C 3.75 -16.40625 3.808594 -16.628906 3.917969 -16.742188 C 4.03125 -16.910156 4.085938 -16.964844 4.085938 -16.855469 Z M 3.75 -15.957031 C 3.75 -15.847656 3.640625 -15.621094 3.527344 -15.453125 C 3.472656 -15.34375 3.359375 -15.285156 3.359375 -15.398438 C 3.359375 -15.511719 3.472656 -15.679688 3.527344 -15.847656 C 3.640625 -16.015625 3.75 -16.015625 3.75 -15.957031 Z M 2.96875 -9.40625 C 2.96875 -9.296875 2.855469 -8.566406 2.742188 -7.894531 C 2.574219 -7.054688 2.464844 -6.832031 2.464844 -7.222656 C 2.464844 -7.839844 2.96875 -9.96875 2.96875 -9.40625 Z M 3.191406 -10.640625 C 3.191406 -10.863281 3.246094 -10.917969 3.304688 -10.75 C 3.359375 -10.640625 3.359375 -10.472656 3.304688 -10.414062 C 3.246094 -10.359375 3.191406 -10.414062 3.191406 -10.640625 Z M 10.359375 -3.023438 C 10.414062 -3.136719 10.527344 -3.191406 10.527344 -3.078125 C 10.527344 -3.023438 10.414062 -2.800781 10.359375 -2.632812 C 10.246094 -2.519531 10.136719 -2.464844 10.136719 -2.574219 C 10.136719 -2.632812 10.246094 -2.855469 10.359375 -3.023438 Z M 10.246094 1.566406 C 9.351562 3.304688 8.230469 5.261719 8.34375 4.757812 C 8.398438 4.703125 8.960938 3.527344 9.632812 2.238281 C 11.144531 -0.726562 12.207031 -3.359375 14.109375 -8.960938 C 14.949219 -11.367188 15.621094 -13.269531 15.621094 -13.160156 C 15.679688 -12.933594 13.605469 -6.605469 12.824219 -4.480469 C 11.816406 -1.734375 11.3125 -0.503906 10.246094 1.566406 Z M 14.558594 -4.199219 C 14.503906 -3.863281 14.222656 -3.246094 14.222656 -3.582031 C 14.222656 -3.695312 14.277344 -3.976562 14.390625 -4.085938 C 14.445312 -4.253906 14.558594 -4.3125 14.558594 -4.199219 Z M 20.832031 -24.414062 C 20.832031 -24.582031 20.832031 -24.636719 20.886719 -24.46875 C 20.941406 -24.359375 20.941406 -24.191406 20.886719 -24.132812 C 20.832031 -24.078125 20.773438 -24.191406 20.832031 -24.414062 Z M 20.773438 -23.796875 C 20.773438 -23.6875 20.4375 -22.621094 20.046875 -21.503906 C 19.652344 -20.382812 18.757812 -17.46875 18.03125 -15.117188 C 17.300781 -12.765625 16.292969 -9.40625 15.734375 -7.671875 C 15.175781 -5.992188 14.671875 -4.535156 14.613281 -4.480469 C 14.445312 -4.3125 14.613281 -4.925781 15.117188 -6.382812 C 15.398438 -7.28125 16.460938 -10.695312 17.46875 -14 C 19.316406 -19.933594 20.773438 -24.191406 20.773438 -23.796875 Z M 19.988281 -25.644531 C 20.328125 -26.09375 20.328125 -26.09375 18.980469 -22.789062 C 18.367188 -21.335938 17.414062 -18.644531 16.855469 -16.855469 C 15.902344 -13.832031 15.679688 -13.160156 15.679688 -13.550781 C 15.679688 -13.605469 16.183594 -15.285156 16.796875 -17.191406 C 18.03125 -21.109375 19.542969 -25.140625 19.988281 -25.644531 Z M 16.964844 -20.605469 C 18.253906 -23.910156 18.980469 -25.535156 19.261719 -25.757812 C 19.542969 -26.039062 19.484375 -25.8125 18.8125 -24.414062 C 18.03125 -22.734375 17.359375 -20.941406 15.734375 -15.957031 C 12.597656 -6.214844 11.085938 -2.128906 9.40625 1.230469 C 9.015625 2.015625 8.625 2.6875 8.625 2.6875 C 8.566406 2.6875 8.847656 2.015625 9.238281 1.175781 C 10.695312 -2.070312 13.160156 -8.960938 15.566406 -16.574219 C 16.070312 -18.03125 16.6875 -19.878906 16.964844 -20.605469 Z M 15.511719 -17.917969 C 15.679688 -18.140625 15.621094 -18.03125 14.335938 -13.941406 C 13.269531 -10.582031 11.984375 -6.832031 11.199219 -4.757812 C 10.917969 -4.085938 10.640625 -3.472656 10.582031 -3.414062 C 10.527344 -3.359375 10.527344 -3.472656 10.582031 -3.640625 C 10.695312 -3.863281 11.757812 -7.113281 13.046875 -10.917969 C 14.277344 -14.671875 15.398438 -17.863281 15.511719 -17.917969 Z M 13.101562 -27.046875 C 13.4375 -27.046875 13.941406 -26.039062 14.558594 -23.964844 C 15.007812 -22.398438 15.0625 -22.566406 13.101562 -19.597656 C 9.238281 -13.664062 6.945312 -10.304688 6.101562 -9.296875 C 5.542969 -8.679688 4.703125 -7.839844 4.199219 -7.390625 L 3.304688 -6.605469 L 3.414062 -7.558594 C 3.808594 -10.246094 5.765625 -15.621094 8.0625 -20.046875 C 10.472656 -24.695312 12.152344 -27.046875 13.101562 -27.046875 Z M 13.101562 -27.046875 "/></g></g></g><g fill="#ff5733" fill-opacity="1"><g transform="translate(177.162227, 212.249986)"><g><path d="M -1.902344 -8.457031 C -1.34375 -7.28125 -0.0546875 -5.933594 0.449219 -5.933594 C 0.671875 -5.933594 1.230469 -5.542969 1.734375 -5.09375 C 3.136719 -3.808594 4.03125 -4.03125 6.160156 -6.214844 C 7.167969 -7.335938 10.078125 -11.03125 11.367188 -12.878906 L 12.261719 -14.222656 L 12.375 -12.824219 C 12.65625 -10.304688 13.71875 -8.289062 15.230469 -7.558594 C 15.679688 -7.335938 16.070312 -7.054688 16.125 -6.886719 C 16.40625 -6.160156 18.308594 -5.878906 19.148438 -6.4375 C 21.335938 -7.894531 24.359375 -11.984375 29.957031 -21.167969 C 31.355469 -23.519531 31.636719 -24.46875 30.347656 -22.679688 C 29.957031 -22.117188 29.566406 -21.671875 29.566406 -21.726562 C 29.566406 -21.839844 29.902344 -22.285156 30.238281 -22.789062 C 30.628906 -23.292969 30.851562 -23.796875 30.796875 -23.855469 C 30.742188 -23.910156 30.179688 -23.183594 29.566406 -22.34375 C 26.09375 -17.582031 24.359375 -15.34375 22.453125 -13.382812 C 20.605469 -11.480469 18.140625 -9.40625 17.972656 -9.632812 C 17.804688 -9.742188 18.253906 -11.703125 18.8125 -13.550781 C 19.09375 -14.558594 19.988281 -16.910156 20.71875 -18.8125 C 22.34375 -22.902344 22.957031 -25.085938 22.957031 -26.261719 C 22.957031 -27.046875 22.902344 -27.214844 22.34375 -27.71875 C 21.949219 -28.054688 21.613281 -28.277344 21.503906 -28.222656 C 21.445312 -28.164062 21.335938 -28.222656 21.277344 -28.390625 C 21.222656 -28.558594 21.054688 -28.667969 20.886719 -28.613281 C 20.71875 -28.558594 20.605469 -28.613281 20.605469 -28.78125 C 20.605469 -29.0625 20.550781 -29.0625 20.214844 -28.726562 C 19.820312 -28.390625 19.820312 -28.390625 20.046875 -28.78125 C 20.328125 -29.398438 20.269531 -29.734375 19.878906 -29.84375 C 19.148438 -30.070312 18.589844 -29.789062 18.03125 -28.835938 C 17.46875 -27.996094 17.132812 -27.660156 17.132812 -28.109375 C 17.132812 -28.222656 16.964844 -28.332031 16.742188 -28.390625 C 16.519531 -28.445312 15.789062 -29.003906 15.175781 -29.566406 C 14.277344 -30.460938 13.886719 -30.683594 13.214844 -30.796875 C 11.648438 -31.019531 9.464844 -30.292969 7.617188 -28.949219 C 2.96875 -25.535156 -2.855469 -14.839844 -2.464844 -10.472656 C -2.40625 -9.910156 -2.128906 -9.015625 -1.902344 -8.457031 Z M 28.332031 -19.820312 C 28.445312 -19.765625 28.558594 -19.933594 28.558594 -20.101562 C 28.613281 -20.269531 28.667969 -20.496094 28.726562 -20.550781 C 28.835938 -20.605469 28.835938 -20.496094 28.78125 -20.269531 C 28.726562 -19.710938 28.390625 -19.375 28.222656 -19.652344 C 28.164062 -19.765625 28.164062 -19.820312 28.332031 -19.820312 Z M 27.550781 -18.253906 C 27.828125 -18.476562 27.828125 -18.476562 27.605469 -18.140625 C 27.324219 -17.863281 27.214844 -17.75 27.214844 -17.917969 C 27.214844 -17.972656 27.324219 -18.085938 27.550781 -18.253906 Z M 26.765625 -17.695312 C 26.820312 -17.804688 27.214844 -17.75 27.214844 -17.582031 C 27.214844 -17.582031 27.101562 -17.527344 26.933594 -17.527344 C 26.765625 -17.527344 26.710938 -17.582031 26.765625 -17.695312 Z M 24.972656 -15.175781 C 25.085938 -15.285156 25.308594 -15.34375 25.421875 -15.34375 C 25.535156 -15.34375 25.644531 -15.511719 25.703125 -15.621094 C 25.757812 -15.789062 25.703125 -15.847656 25.535156 -15.734375 C 25.367188 -15.621094 25.367188 -15.679688 25.421875 -15.734375 C 25.535156 -15.847656 25.644531 -15.902344 25.757812 -15.902344 C 25.871094 -15.902344 26.039062 -16.015625 26.09375 -16.183594 C 26.148438 -16.351562 26.09375 -16.40625 25.871094 -16.292969 C 25.703125 -16.125 25.703125 -16.183594 25.871094 -16.40625 C 26.039062 -16.628906 26.207031 -16.6875 26.316406 -16.628906 C 26.484375 -16.519531 25.980469 -15.566406 25.589844 -15.230469 C 25.253906 -14.949219 24.695312 -14.839844 24.972656 -15.175781 Z M 24.582031 -14.445312 C 24.46875 -14.335938 24.414062 -14.390625 24.527344 -14.445312 C 24.582031 -14.558594 24.75 -14.613281 24.917969 -14.671875 C 25.140625 -14.671875 25.140625 -14.613281 24.972656 -14.335938 C 24.917969 -14.167969 24.695312 -13.941406 24.582031 -13.886719 C 24.414062 -13.773438 24.414062 -13.832031 24.582031 -14 C 24.695312 -14.167969 24.804688 -14.335938 24.804688 -14.390625 C 24.804688 -14.503906 24.695312 -14.503906 24.582031 -14.445312 Z M 23.796875 -13.605469 C 23.964844 -13.832031 24.191406 -14 24.246094 -14 C 24.300781 -14 24.191406 -13.832031 23.964844 -13.605469 C 23.796875 -13.4375 23.628906 -13.269531 23.574219 -13.269531 C 23.519531 -13.269531 23.628906 -13.4375 23.796875 -13.605469 Z M 22.957031 -12.542969 C 23.238281 -12.765625 23.238281 -12.765625 23.015625 -12.488281 C 22.789062 -12.152344 22.621094 -12.09375 22.621094 -12.207031 C 22.621094 -12.261719 22.734375 -12.429688 22.957031 -12.542969 Z M 3.640625 -10.695312 C 3.527344 -10.359375 3.414062 -9.742188 3.246094 -9.351562 L 3.023438 -8.566406 L 3.136719 -9.40625 C 3.191406 -9.855469 3.359375 -10.472656 3.472656 -10.808594 L 3.75 -11.3125 Z M 10.75 -13.941406 C 10.472656 -13.664062 10.359375 -13.550781 10.359375 -13.71875 C 10.359375 -13.71875 10.472656 -13.886719 10.640625 -14 C 10.917969 -14.222656 10.976562 -14.222656 10.75 -13.941406 Z M 11.253906 -14.671875 C 11.03125 -14.390625 10.863281 -14.277344 10.863281 -14.445312 C 10.863281 -14.445312 11.03125 -14.613281 11.199219 -14.726562 C 11.480469 -15.007812 11.480469 -14.949219 11.253906 -14.671875 Z M 21.726562 -24.191406 C 22.285156 -25.308594 21.558594 -23.125 20.664062 -20.941406 C 20.101562 -19.597656 19.207031 -17.246094 18.644531 -15.734375 C 17.636719 -12.824219 17.414062 -12.429688 18.03125 -14.613281 C 18.367188 -15.734375 21.222656 -23.125 21.726562 -24.191406 Z M 20.328125 -24.972656 C 20.4375 -24.972656 19.933594 -23.742188 18.925781 -21.445312 C 18.476562 -20.4375 17.804688 -18.871094 17.46875 -18.03125 C 16.628906 -15.847656 16.574219 -15.734375 16.574219 -15.847656 C 16.519531 -16.519531 19.988281 -24.972656 20.328125 -24.972656 Z M 17.804688 -21.839844 C 18.085938 -22.175781 17.917969 -21.613281 17.191406 -19.765625 C 16.628906 -18.367188 15.902344 -16.292969 15.621094 -15.175781 C 15.230469 -13.71875 15.117188 -13.4375 15.175781 -14.109375 C 15.453125 -16.292969 16.910156 -20.773438 17.804688 -21.839844 Z M 16.125 -19.316406 C 16.015625 -19.207031 15.679688 -18.253906 15.34375 -17.246094 C 15.007812 -16.183594 14.78125 -15.679688 14.839844 -16.125 C 15.007812 -17.246094 15.621094 -19.09375 15.957031 -19.316406 C 16.238281 -19.542969 16.238281 -19.542969 16.125 -19.316406 Z M 13.832031 -24.527344 C 14.503906 -24.972656 15.175781 -25.421875 15.34375 -25.476562 C 15.902344 -25.703125 15.789062 -24.972656 14.839844 -23.070312 C 13.269531 -19.988281 7.671875 -12.542969 5.320312 -10.414062 C 4.816406 -9.96875 4.367188 -9.574219 4.253906 -9.574219 C 4.03125 -9.574219 5.152344 -12.597656 6.214844 -14.839844 C 8.230469 -18.980469 11.199219 -22.789062 13.832031 -24.527344 Z M 7.785156 -23.183594 L 8.511719 -23.964844 L 7.726562 -22.902344 C 5.765625 -20.214844 4.421875 -17.972656 3.472656 -15.621094 C 3.078125 -14.78125 2.519531 -13.269531 2.183594 -12.261719 C 1.847656 -11.253906 1.566406 -10.582031 1.566406 -10.808594 C 1.511719 -11.648438 2.6875 -14.839844 3.75 -16.964844 C 5.039062 -19.429688 6.664062 -21.949219 7.785156 -23.183594 Z M 5.65625 -21.894531 C 5.710938 -21.894531 5.542969 -21.503906 5.207031 -21.054688 C 4.421875 -19.878906 2.742188 -16.6875 2.070312 -15.007812 C 1.734375 -14.222656 1.230469 -12.65625 0.953125 -11.535156 C 0.558594 -9.96875 0.449219 -9.6875 0.449219 -10.246094 C 0.449219 -12.261719 2.238281 -16.6875 4.589844 -20.328125 C 5.09375 -21.167969 5.597656 -21.894531 5.65625 -21.894531 Z M -0.222656 -11.253906 C 0 -12.320312 0.617188 -14.222656 1.007812 -14.894531 C 1.230469 -15.285156 1.289062 -15.398438 1.230469 -15.175781 C 1.175781 -15.007812 0.839844 -13.941406 0.503906 -12.824219 C -0.167969 -10.75 -0.449219 -10.136719 -0.222656 -11.253906 Z M -0.222656 -11.253906 "/></g></g></g><g fill="#ff5733" fill-opacity="1"><g transform="translate(204.094465, 212.249986)"><g><path d="M 17.246094 -47.429688 C 16.628906 -49.050781 14.503906 -47.988281 12.597656 -45.132812 C 12.152344 -44.460938 10.976562 -42.445312 10.023438 -40.597656 C 4.085938 -29.675781 0.222656 -20.382812 -1.289062 -13.496094 C -2.238281 -9.015625 -2.183594 -7.113281 -0.894531 -4.480469 C -0.28125 -3.191406 1.34375 -1.566406 2.238281 -1.398438 C 2.519531 -1.289062 3.023438 -1.0625 3.246094 -0.839844 C 3.527344 -0.617188 3.917969 -0.390625 4.03125 -0.335938 C 4.589844 -0.113281 5.878906 -0.167969 6.382812 -0.449219 C 7.222656 -0.894531 9.296875 -3.136719 10.359375 -4.757812 C 10.917969 -5.65625 12.429688 -8.175781 13.71875 -10.472656 C 15.007812 -12.710938 16.910156 -15.957031 17.972656 -17.582031 C 19.820312 -20.605469 20.101562 -21.277344 19.484375 -21.222656 C 19.316406 -21.222656 19.207031 -21.277344 19.207031 -21.390625 C 19.261719 -21.558594 19.148438 -21.671875 18.980469 -21.671875 C 18.476562 -21.671875 17.078125 -19.988281 15.007812 -17.132812 C 8.0625 -7.335938 6.664062 -5.375 5.878906 -4.589844 C 5.375 -4.085938 4.871094 -3.695312 4.757812 -3.695312 C 4.480469 -3.695312 4.703125 -7.167969 5.039062 -9.296875 C 5.710938 -12.878906 8.121094 -20.101562 10.75 -25.925781 C 12.152344 -29.117188 15.230469 -35.332031 16.855469 -38.132812 C 19.597656 -42.890625 20.214844 -44.628906 19.542969 -45.46875 C 18.925781 -46.140625 18.535156 -46.308594 18.140625 -45.914062 C 17.75 -45.578125 17.75 -45.578125 17.972656 -45.972656 C 18.253906 -46.585938 18.199219 -46.8125 17.804688 -46.644531 C 17.582031 -46.585938 17.46875 -46.644531 17.46875 -46.699219 C 17.46875 -46.8125 17.414062 -47.089844 17.246094 -47.429688 Z M 18.8125 -20.941406 C 18.925781 -21.054688 19.261719 -21 19.261719 -20.832031 C 19.261719 -20.832031 19.148438 -20.773438 18.980469 -20.773438 C 18.871094 -20.773438 18.757812 -20.832031 18.8125 -20.941406 Z M 18.308594 -20.214844 C 18.589844 -20.4375 18.589844 -20.4375 18.367188 -20.15625 C 18.140625 -19.820312 17.972656 -19.710938 17.972656 -19.878906 C 17.972656 -19.933594 18.140625 -20.046875 18.308594 -20.214844 Z M 16.40625 -17.636719 C 16.519531 -17.863281 16.628906 -17.917969 16.6875 -17.863281 C 16.742188 -17.804688 16.6875 -17.695312 16.519531 -17.582031 C 16.351562 -17.359375 16.351562 -17.414062 16.40625 -17.636719 Z M 0.671875 -9.742188 C 0.449219 -8.289062 0.167969 -7.894531 0.28125 -9.238281 C 0.671875 -13.269531 3.695312 -22.0625 7.390625 -30.238281 C 9.40625 -34.605469 14.109375 -43.285156 14.445312 -43.285156 C 14.503906 -43.285156 14.390625 -43.003906 14.167969 -42.667969 C 13.71875 -41.996094 11.703125 -38.1875 9.800781 -34.550781 C 5.375 -26.148438 1.34375 -15.117188 0.671875 -9.742188 Z M 1.960938 -12.152344 C 1.679688 -10.976562 1.398438 -9.296875 1.34375 -8.34375 C 1.230469 -7.28125 1.121094 -6.832031 1.0625 -7.113281 C 0.726562 -8.007812 1.398438 -11.871094 2.40625 -15.398438 C 3.304688 -18.421875 5.375 -24.023438 7.054688 -27.773438 C 9.632812 -33.539062 14.839844 -43.285156 16.183594 -44.796875 C 16.796875 -45.523438 16.742188 -45.300781 15.566406 -43.453125 C 14.390625 -41.546875 10.472656 -34.214844 9.070312 -31.246094 C 5.65625 -24.078125 3.078125 -17.246094 1.960938 -12.152344 Z M 4.589844 -11.144531 C 4.480469 -10.640625 4.199219 -9.351562 4.03125 -8.230469 C 3.695312 -6.046875 3.582031 -6.160156 3.863281 -8.34375 C 4.085938 -9.855469 4.589844 -12.152344 4.703125 -12.039062 C 4.757812 -11.984375 4.703125 -11.589844 4.589844 -11.144531 Z M 4.871094 -12.320312 C 4.816406 -12.261719 4.757812 -12.375 4.816406 -12.597656 C 4.816406 -12.824219 4.871094 -12.824219 4.925781 -12.710938 C 4.984375 -12.542969 4.925781 -12.429688 4.871094 -12.320312 Z M 5.597656 -14.894531 C 5.542969 -14.839844 5.542969 -14.949219 5.542969 -15.175781 C 5.542969 -15.34375 5.597656 -15.398438 5.65625 -15.285156 C 5.710938 -15.117188 5.710938 -14.949219 5.597656 -14.894531 Z M 5.488281 -19.09375 C 5.429688 -18.925781 5.320312 -18.871094 5.320312 -18.980469 C 5.320312 -19.09375 5.429688 -19.316406 5.488281 -19.429688 C 5.597656 -19.597656 5.710938 -19.652344 5.710938 -19.542969 C 5.710938 -19.429688 5.597656 -19.207031 5.488281 -19.09375 Z M 6.046875 -20.550781 C 5.992188 -20.382812 5.878906 -20.328125 5.878906 -20.4375 C 5.878906 -20.550781 5.992188 -20.773438 6.046875 -20.886719 C 6.160156 -21.054688 6.214844 -21.109375 6.214844 -21 C 6.214844 -20.886719 6.160156 -20.71875 6.046875 -20.550781 Z M 9.519531 -25.421875 C 9.519531 -25.308594 9.40625 -25.03125 9.296875 -24.75 C 9.128906 -24.527344 9.015625 -24.359375 9.015625 -24.46875 C 9.015625 -24.582031 9.128906 -24.863281 9.296875 -25.140625 C 9.40625 -25.367188 9.519531 -25.476562 9.519531 -25.421875 Z M 10.640625 -27.886719 C 10.527344 -27.71875 10.472656 -27.660156 10.472656 -27.773438 C 10.472656 -27.886719 10.527344 -28.109375 10.640625 -28.222656 C 10.75 -28.390625 10.808594 -28.445312 10.808594 -28.332031 C 10.808594 -28.222656 10.75 -28.054688 10.640625 -27.886719 Z M 13.941406 -34.492188 C 12.933594 -32.589844 11.984375 -30.742188 11.757812 -30.347656 C 11.589844 -29.957031 11.367188 -29.675781 11.367188 -29.789062 C 11.367188 -30.011719 15.175781 -37.347656 15.566406 -37.851562 C 15.957031 -38.46875 15.789062 -38.078125 13.941406 -34.492188 Z M 16.519531 -41.996094 C 16.40625 -41.773438 16.292969 -41.605469 16.238281 -41.605469 C 16.183594 -41.605469 16.238281 -41.773438 16.351562 -41.996094 C 16.460938 -42.21875 16.574219 -42.386719 16.628906 -42.386719 C 16.6875 -42.386719 16.628906 -42.21875 16.519531 -41.996094 Z M 16.292969 -42.613281 C 11.253906 -34.382812 6.101562 -23.015625 3.75 -15.117188 C 3.414062 -13.941406 2.910156 -12.152344 2.632812 -11.085938 C 2.296875 -9.632812 2.238281 -9.464844 2.296875 -10.304688 C 2.910156 -16.238281 9.128906 -31.132812 15.566406 -42.050781 C 16.292969 -43.339844 17.023438 -44.402344 17.078125 -44.402344 C 17.359375 -44.402344 17.300781 -44.292969 16.292969 -42.613281 Z M 18.980469 -44.347656 C 19.207031 -44.570312 18.871094 -43.621094 18.308594 -42.5 C 18.03125 -41.941406 17.75 -41.4375 17.695312 -41.4375 C 17.636719 -41.4375 18.8125 -44.179688 18.980469 -44.347656 Z M 18.980469 -44.347656 "/></g></g></g><g fill="#ff5733" fill-opacity="1"><g transform="translate(220.444182, 212.249986)"><g><path d="M 26.828125 -30.859375 L 26.828125 0 L 22.28125 0 L 22.28125 -10.703125 C 21.195312 -9.984375 20.019531 -9.378906 18.75 -8.890625 C 17.488281 -8.410156 15.976562 -8.171875 14.21875 -8.171875 C 12.726562 -8.171875 11.375 -8.421875 10.15625 -8.921875 C 8.945312 -9.429688 7.953125 -10.078125 7.171875 -10.859375 C 6.203125 -11.867188 5.5 -13.054688 5.0625 -14.421875 C 4.632812 -15.785156 4.421875 -17.660156 4.421875 -20.046875 L 4.421875 -30.859375 L 0 -30.859375 L 0 -34.828125 L 32.640625 -34.828125 L 32.640625 -30.859375 Z M 22.28125 -30.859375 L 8.953125 -30.859375 L 8.953125 -20.65625 C 8.953125 -19.132812 9.007812 -17.925781 9.125 -17.03125 C 9.238281 -16.132812 9.414062 -15.414062 9.65625 -14.875 C 9.90625 -14.332031 10.234375 -13.851562 10.640625 -13.4375 C 11.492188 -12.582031 12.859375 -12.15625 14.734375 -12.15625 C 16.222656 -12.15625 17.617188 -12.507812 18.921875 -13.21875 C 20.234375 -13.925781 21.351562 -14.75 22.28125 -15.6875 Z M 22.28125 -30.859375 "/></g></g></g><g fill="#ff5733" fill-opacity="1"><g transform="translate(252.247746, 212.249986)"><g><path d="M -10.359375 -43.234375 C -10.359375 -44.128906 -10.050781 -44.894531 -9.4375 -45.53125 C -8.820312 -46.164062 -8.101562 -46.484375 -7.28125 -46.484375 C -6.457031 -46.484375 -5.738281 -46.164062 -5.125 -45.53125 C -4.507812 -44.894531 -4.203125 -44.128906 -4.203125 -43.234375 C -4.203125 -42.335938 -4.507812 -41.570312 -5.125 -40.9375 C -5.738281 -40.300781 -6.457031 -39.984375 -7.28125 -39.984375 C -8.101562 -39.984375 -8.820312 -40.300781 -9.4375 -40.9375 C -10.050781 -41.570312 -10.359375 -42.335938 -10.359375 -43.234375 Z M -10.359375 -43.234375 "/></g></g></g><g fill="#ff5733" fill-opacity="1"><g transform="translate(252.247746, 212.249986)"><g><path d="M 26.9375 -30.859375 L 26.9375 0 L 22.40625 0 L 22.40625 -18.375 L 16.296875 -18.375 C 14.015625 -18.375 12.304688 -18.257812 11.171875 -18.03125 C 10.035156 -17.8125 9.113281 -17.382812 8.40625 -16.75 C 7.507812 -16.039062 7.0625 -14.878906 7.0625 -13.265625 C 7.0625 -11.441406 7.75 -9.679688 9.125 -7.984375 C 10.507812 -6.285156 12.523438 -4.367188 15.171875 -2.234375 L 12.15625 0.671875 C 10.394531 -0.816406 8.785156 -2.304688 7.328125 -3.796875 C 5.878906 -5.296875 4.710938 -6.847656 3.828125 -8.453125 C 2.953125 -10.054688 2.515625 -11.753906 2.515625 -13.546875 C 2.515625 -14.816406 2.765625 -15.984375 3.265625 -17.046875 C 3.773438 -18.109375 4.421875 -18.976562 5.203125 -19.65625 C 6.285156 -20.59375 7.59375 -21.273438 9.125 -21.703125 C 10.65625 -22.128906 12.691406 -22.34375 15.234375 -22.34375 L 22.40625 -22.34375 L 22.40625 -30.859375 L 0 -30.859375 L 0 -34.828125 L 32.703125 -34.828125 L 32.703125 -30.859375 Z M 26.9375 -30.859375 "/></g></g></g><g fill="#ff5733" fill-opacity="1"><g transform="translate(284.163291, 212.249986)"><g><path d="M -10.359375 -34.4375 C -10.992188 -35.75 -11.476562 -37 -11.8125 -38.1875 C -12.144531 -39.382812 -12.3125 -40.617188 -12.3125 -41.890625 C -12.3125 -44.273438 -11.523438 -46.25 -9.953125 -47.8125 C -8.390625 -49.382812 -6.210938 -50.171875 -3.421875 -50.171875 C -1.179688 -50.171875 0.679688 -49.640625 2.171875 -48.578125 C 3.671875 -47.515625 4.960938 -45.851562 6.046875 -43.59375 C 7.128906 -41.332031 8.15625 -38.410156 9.125 -34.828125 L 15.28125 -34.828125 L 15.28125 -30.859375 L 9.515625 -30.859375 L 9.515625 0 L 4.984375 0 L 4.984375 -30.859375 L 0 -30.859375 L 0 -34.828125 L 4.875 -34.828125 C 3.820312 -38.710938 2.726562 -41.578125 1.59375 -43.421875 C 0.457031 -45.273438 -1.132812 -46.203125 -3.1875 -46.203125 C -4.6875 -46.203125 -5.828125 -45.742188 -6.609375 -44.828125 C -7.390625 -43.910156 -7.78125 -42.648438 -7.78125 -41.046875 C -7.78125 -39.773438 -7.59375 -38.625 -7.21875 -37.59375 C -6.84375 -36.570312 -6.394531 -35.519531 -5.875 -34.4375 Z M -10.359375 -34.4375 "/></g></g></g></svg>